<svg width="215" height="48" viewBox="0 0 215 48" fill="none" xmlns="http://www.w3.org/2000/svg">
<path fill-rule="evenodd" clip-rule="evenodd" d="M74.5241 38.8052C67.6579 43.9094 57.7042 46.6231 49.133 46.6231C37.1202 46.6231 26.3026 42.1501 18.1171 34.7051C17.4743 34.1202 18.0478 33.3215 18.8203 33.7747C27.6519 38.9509 38.5742 42.0686 49.8545 42.0686C57.4637 42.0686 65.8288 40.4774 73.5261 37.1894C74.6864 36.6943 75.66 37.9607 74.5241 38.8052Z" fill="#FF9900"/>
<path fill-rule="evenodd" clip-rule="evenodd" d="M77.3812 35.5206C76.5029 34.3881 71.5767 34.9836 69.363 35.251C68.6925 35.3325 68.5883 34.742 69.1923 34.3144C73.1227 31.5343 79.5622 32.3369 80.3108 33.2679C81.065 34.2073 80.113 40.7102 76.4297 43.8134C75.8634 44.2906 75.3243 44.0361 75.5753 43.406C76.4048 41.3208 78.26 36.6536 77.3812 35.5206Z" fill="#FF9900"/>
<path fill-rule="evenodd" clip-rule="evenodd" d="M69.5192 14.6729V11.971C69.5215 11.5596 69.8284 11.2856 70.1997 11.2867L82.2214 11.2856C82.6054 11.2856 82.9141 11.5669 82.9141 11.9671V14.2845C82.9108 14.6735 82.5855 15.1803 82.0092 15.9851L75.782 24.9405C78.0932 24.8858 80.5391 25.2346 82.6392 26.424C83.1125 26.6914 83.2393 27.0882 83.277 27.4778V30.3611C83.277 30.758 82.8448 31.2179 82.391 30.9779C78.6917 29.026 73.781 28.8128 69.6894 31.0024C69.2716 31.2262 68.8344 30.7736 68.8344 30.3756V27.6357C68.8344 27.197 68.8427 26.4469 69.2821 25.7788L76.4968 15.3533L70.2152 15.3527C69.8296 15.3533 69.5215 15.0776 69.5192 14.6729Z" fill="black"/>
<path fill-rule="evenodd" clip-rule="evenodd" d="M25.6675 31.5466H22.0098C21.6618 31.5232 21.3842 31.2603 21.3553 30.9237L21.3581 12.0173C21.3581 11.6389 21.6734 11.3369 22.0635 11.3369L25.4697 11.3358C25.826 11.3542 26.1119 11.6255 26.1341 11.971V14.4391H26.2028C27.0905 12.0519 28.7634 10.9379 31.0159 10.9379C33.3034 10.9379 34.7374 12.0525 35.7615 14.4391C36.6497 12.0519 38.6634 10.9379 40.8145 10.9379C42.3505 10.9379 44.024 11.5747 45.048 13.0069C46.2083 14.5987 45.9706 16.9055 45.9706 18.9349L45.9673 30.8668C45.9673 31.2441 45.652 31.5472 45.2619 31.5472H41.6091C41.2417 31.5232 40.953 31.2307 40.953 30.8679L40.9519 20.8448C40.9519 20.0501 41.0201 18.0603 40.8489 17.3046C40.5757 16.0309 39.7567 15.6726 38.6989 15.6726C37.8106 15.6726 36.8885 16.2692 36.5128 17.2242C36.1377 18.1792 36.1715 19.7704 36.1715 20.8448V30.8674C36.1715 31.2447 35.8562 31.5477 35.4667 31.5477H31.8133C31.4459 31.5237 31.1567 31.2313 31.1567 30.8685L31.1534 20.8454C31.1534 18.7367 31.4947 15.6341 28.9008 15.6341C26.2715 15.6341 26.374 18.6575 26.374 20.8454L26.3729 30.8679C26.3735 31.2441 26.0571 31.5466 25.6675 31.5466Z" fill="black"/>
<path fill-rule="evenodd" clip-rule="evenodd" d="M93.2629 10.9379C98.6911 10.9379 101.626 15.6335 101.626 21.6006C101.626 27.3689 98.3836 31.9451 93.2629 31.9451C87.9372 31.9451 85.0347 27.2495 85.0347 21.4013C85.0347 15.5129 87.971 10.9379 93.2629 10.9379ZM93.2962 14.7974C90.5992 14.7974 90.4291 18.4968 90.4291 20.8047C90.4291 23.112 90.3953 28.0454 93.2629 28.0454C96.0973 28.0454 96.233 24.067 96.233 21.6407C96.233 20.0495 96.1649 18.1395 95.6861 16.627C95.2766 15.3142 94.4565 14.7974 93.2962 14.7974Z" fill="black"/>
<path fill-rule="evenodd" clip-rule="evenodd" d="M108.666 31.5466H105.023C104.656 31.5226 104.366 31.2302 104.366 30.8674L104.36 11.9537C104.391 11.6076 104.694 11.3369 105.062 11.3369L108.455 11.3358C108.774 11.3526 109.038 11.5719 109.105 11.8649V14.7572H109.174C110.199 12.1702 111.632 10.9373 114.158 10.9373C115.796 10.9373 117.402 11.534 118.425 13.166C119.381 14.6774 119.381 17.2236 119.381 19.0538V30.9511C119.341 31.286 119.042 31.5461 118.68 31.5461H115.014C114.676 31.5243 114.403 31.2737 114.363 30.9511V20.6858C114.363 18.6168 114.603 15.5928 112.076 15.5928C111.188 15.5928 110.369 16.1894 109.959 17.1042C109.447 18.2584 109.378 19.4115 109.378 20.6858V30.8662C109.372 31.2441 109.057 31.5466 108.666 31.5466Z" fill="black"/>
<path fill-rule="evenodd" clip-rule="evenodd" d="M59.9362 22.5176C59.9362 23.9537 59.97 25.1492 59.2513 26.4257C58.67 27.4616 57.7458 28.1001 56.7201 28.1001C55.3176 28.1001 54.4964 27.0229 54.4964 25.4283C54.4964 22.291 57.2903 21.7206 59.9368 21.7206L59.9362 22.5176ZM63.6228 31.4997C63.3812 31.7191 63.0321 31.733 62.7589 31.5851C61.5448 30.5688 61.3271 30.0988 60.6627 29.131C58.6551 31.1905 57.2338 31.8089 54.6327 31.8089C51.554 31.8089 49.1585 29.8945 49.1585 26.0668C49.1585 23.0769 50.7666 21.0435 53.059 20.0462C55.0427 19.1688 57.8145 19.0097 59.9362 18.7697V18.2914C59.9362 17.414 60.0044 16.3781 59.4907 15.6201C59.0457 14.942 58.1907 14.6629 57.4377 14.6629C56.0429 14.6629 54.8034 15.3829 54.498 16.8748C54.4349 17.2069 54.1944 17.5356 53.863 17.5524L50.3183 17.1656C50.0185 17.0975 49.686 16.8558 49.7719 16.3954C50.5876 12.0642 54.4709 10.7559 57.9508 10.7559C59.7306 10.7559 62.0563 11.2331 63.4593 12.59C65.2392 14.2644 65.0674 16.4981 65.0674 18.9304V24.6687C65.0674 26.3956 65.7795 27.1524 66.4477 28.0822C66.6816 28.4182 66.7337 28.8156 66.4355 29.0612C65.6886 29.6925 64.3614 30.8534 63.6311 31.5081L63.6228 31.4997Z" fill="black"/>
<path fill-rule="evenodd" clip-rule="evenodd" d="M11.9913 22.5176C11.9913 23.9537 12.0256 25.1492 11.3075 26.4257C10.7267 27.4616 9.80191 28.1001 8.77567 28.1001C7.37319 28.1001 6.55198 27.0229 6.55198 25.4283C6.55198 22.291 9.34642 21.7206 11.9913 21.7206V22.5176ZM15.6789 31.4997C15.4373 31.7191 15.0877 31.733 14.8151 31.5851C13.5999 30.5688 13.3821 30.0988 12.7188 29.131C10.7107 31.1905 9.28935 31.809 6.6894 31.809C3.61013 31.809 1.21521 29.8945 1.21521 26.0668C1.21521 23.0769 2.82272 21.0436 5.11569 20.0462C7.1 19.1688 9.87173 19.0097 11.9918 18.7697V18.2914C11.9918 17.414 12.0611 16.3781 11.548 15.6201C11.1024 14.942 10.2474 14.6629 9.49493 14.6629C8.09964 14.6629 6.85896 15.3829 6.5553 16.8748C6.49158 17.2069 6.25164 17.5356 5.91972 17.5524L2.37555 17.1656C2.07521 17.097 1.74218 16.8558 1.82862 16.3948C2.64319 12.0637 6.52649 10.7554 10.0075 10.7554C11.7868 10.7554 14.1135 11.2326 15.516 12.5894C17.2948 14.2638 17.1241 16.4975 17.1241 18.9299V24.6681C17.1241 26.395 17.8356 27.1518 18.5039 28.0817C18.7372 28.4177 18.7904 28.8151 18.4922 29.0607C17.7447 29.6919 16.417 30.8529 15.6873 31.5076L15.6789 31.4997Z" fill="black"/>
<path d="M136.33 31.5544L127.809 21.1485H127.767V31.5544H124.703V1.60577H127.767V18.6106H127.809L135.113 11.5462H139.101L130.369 19.7101L140.234 31.5544H136.33Z" fill="#FF9900"/>
<path d="M143.801 7.35849C142.626 7.35849 141.661 6.38565 141.661 5.20128C141.661 4.01635 142.626 3.04407 143.801 3.04407C144.976 3.04407 145.942 4.01635 145.942 5.20128C145.942 6.38565 144.976 7.35849 143.801 7.35849ZM142.29 31.5544V11.5462H145.354V31.5544H142.29Z" fill="#FF9900"/>
<path d="M162.575 31.5544V19.2452C162.575 16.7492 162.156 13.9574 159.133 13.9574C156.698 13.9574 154.474 15.6915 152.963 17.0037V31.555H149.899V11.5462H152.417L152.837 13.9574C155.019 12.2657 157.161 11.0389 159.932 11.0389C162.785 11.0389 165.64 13.1113 165.64 18.1033V31.555L162.575 31.5544Z" fill="#FF9900"/>
<path d="M179.155 31.9775C173.615 31.9775 168.955 28.7208 168.955 21.8255C168.955 15.6078 173.404 11.0389 179.197 11.0389C180.624 11.0389 181.632 11.1656 182.429 11.3771V1.60577H185.493V30.5392C184.277 31.2586 181.968 31.9775 179.155 31.9775ZM182.43 14.2538C181.633 13.9574 180.919 13.7464 179.366 13.7464C175.462 13.7464 172.061 16.8346 172.061 21.6145C172.061 26.1405 174.538 29.3554 179.701 29.3554C180.708 29.3554 181.8 29.1438 182.43 28.848V14.2538Z" fill="#FF9900"/>
<path d="M193.469 31.9775C191.034 31.9775 189.985 30.4125 189.985 28.2971V1.60577H193.049V26.9012C193.049 28.8045 193.511 29.1857 194.686 29.1857C194.896 29.1857 195.232 29.1857 195.736 29.059L196.114 31.301C195.19 31.766 194.476 31.9775 193.469 31.9775Z" fill="#FF9900"/>
<path d="M201.066 22.0794C201.066 25.8865 203.249 29.3118 207.53 29.3118C209.336 29.3118 211.183 28.5935 212.358 27.8322L213.323 30.0313C211.854 31.0465 209.336 31.9769 207.153 31.9769C200.814 31.9769 197.791 26.8588 197.791 21.1479C197.791 15.3527 201.065 11.0383 205.851 11.0383C210.972 11.0383 213.784 15.1418 213.784 21.36C213.784 21.5715 213.784 21.8249 213.784 22.0794H201.066ZM205.893 13.6616C202.955 13.6616 201.108 16.2843 201.108 19.4567H210.469C210.469 16.6649 208.916 13.6616 205.893 13.6616Z" fill="#FF9900"/>
</svg>
