<svg width="312" height="48" viewBox="0 0 312 48" fill="none" xmlns="http://www.w3.org/2000/svg">
<g clip-path="url(#clip0_4_214)">
<path d="M311.333 39.8298V46.4681H294.112V2.55316H310.118V9.19146H301.71V20.9361H309.206V27.0638H301.608V39.8298H311.333ZM272.332 2.45104H280.436V39.8298H289.553V46.4681H272.332V2.45104ZM266.76 33.9064C266.76 43.0978 262.708 46.4681 255.617 46.4681H245.892V2.55316H255.718C263.518 2.55316 265.544 7.04678 265.544 14.5021C265.544 20.017 263.518 22.8766 260.175 23.0808C263.924 23.0808 266.861 26.8595 266.861 33.9064H266.76ZM255.009 7.65955H253.591V20.4255H255.617C257.643 20.4255 257.947 18.383 257.947 14.7064C257.947 9.59997 257.339 7.55742 254.908 7.55742L255.009 7.65955ZM255.313 25.634H253.591V41.2595H255.617C257.947 41.2595 258.656 39.8298 258.656 33.0893C258.656 28.2893 257.947 25.7361 255.313 25.7361V25.634ZM229.582 47.2851C222.795 47.2851 219.249 44.4255 219.249 24.6127C219.249 5.41274 222.288 2.14465 229.683 2.14465C237.281 2.14465 240.117 5.41274 240.117 24.6127C240.117 43.4042 237.078 47.2851 229.683 47.2851H229.582ZM231.608 10.3149C231.304 7.25104 230.595 6.53614 229.582 6.53614C228.366 6.53614 227.758 7.14891 227.556 10.3149C227.353 13.3787 227.353 17.7702 227.353 24.6127C227.353 32.783 227.353 35.8468 227.657 38.7064C227.86 42.0766 228.468 42.383 229.683 42.383C231 42.383 231.405 42.383 231.709 38.7064V10.2127L231.608 10.3149ZM202.23 30.2298C201.521 28.1872 201.014 25.7361 200.407 22.6723C200.812 28.5957 200.812 30.2298 200.812 35.4383V46.6723H193.417V2.75742H200.711C200.711 2.75742 203.952 15.7276 204.763 18.383C205.472 21.1404 206.08 23.2851 206.282 25.3276C206.08 20.9361 206.08 15.7276 206.08 11.3361V2.45104H213.171V46.3659H206.991L202.129 30.0255L202.23 30.2298ZM146.21 34.9276C146.21 42.0766 143.17 47.183 136.282 47.183C130.406 47.183 126.455 44.1191 126.455 36.4595C126.455 34.7234 126.455 33.0893 126.861 31.7617H133.952C133.648 33.3957 133.445 34.417 133.445 36.3574C133.445 41.2595 134.661 42.0766 136.484 42.0766C137.801 42.0766 138.814 41.3617 138.814 36.4595C138.814 32.1702 135.775 29.0042 132.736 25.2255C129.495 21.5489 126.152 16.6468 126.152 12.5617C126.152 6.02551 129.191 2.34891 135.471 2.34891C141.55 2.34891 144.893 5.61699 144.893 12.051C144.893 13.4808 144.487 14.6042 144.285 15.6255H137.801L138.004 12.5617C138.004 8.47657 137.396 6.94465 135.674 6.94465C133.851 6.94465 133.648 8.68082 133.648 11.8468C133.648 15.9319 136.687 18.9957 139.422 22.2638C143.069 26.9617 146.108 30.6383 146.108 35.234L146.21 34.9276ZM104.675 2.55316H120.884V9.19146H112.476V20.9361H119.972V27.0638H112.577V39.8298H122.201V46.4681H104.979V2.55316H104.675ZM86.4408 30.1276C85.833 28.0851 85.2252 25.634 84.7187 22.5702C85.1239 28.4936 85.1239 30.1276 85.1239 35.3361V46.5702H77.8301V2.65529H85.1239L89.176 18.2808C89.9864 21.0383 90.5943 23.183 90.9995 25.2255C90.7969 20.834 90.5943 15.6255 90.5943 11.234V2.45104H97.6855V46.3659H91.3034L86.5421 30.0255L86.4408 30.1276ZM64.762 24C69.8272 25.2255 70.3337 31.1489 70.3337 36.4595C70.3337 40.5447 70.6376 44.3234 71.1441 46.4681H63.0399C63.0399 44.6298 62.5333 43.9149 62.5333 39.7276V34.2127C62.5333 30.6383 61.3177 28.0851 58.7851 27.3702H58.3799V46.2638H50.2757V2.34891H62.1281C67.4972 2.34891 71.2454 5.41274 71.2454 13.583C71.2454 20.3234 68.2063 23.2851 64.762 23.7957V24ZM59.6969 8.06806H58.2786V20.6298H60.6086C62.6346 20.6298 63.2425 19.3021 63.2425 15.5234C63.2425 8.88508 62.2294 7.96593 59.6969 8.06806ZM36.5998 39.3191H31.5346L30.9268 46.4681H24.1395L30.5216 2.24678H38.2206L45.6158 46.3659H37.5115L36.4985 39.217L36.5998 39.3191ZM35.1816 26.0425C34.9789 24 34.1685 17.5659 34.1685 13.3787C33.8646 17.7702 33.1555 24 33.1555 25.9404L32.1425 34.417H36.1946L35.1816 26.0425ZM21.2017 33.7021C21.2017 42.8936 17.1496 46.2638 10.0584 46.2638H0.333344V2.34891H10.1597C17.8588 2.34891 19.8848 6.84253 19.8848 14.2978C19.8848 19.8127 17.8588 22.6723 14.5158 22.8766C18.264 22.8766 21.2017 26.6553 21.2017 33.7021ZM9.45061 7.65955H7.93106V20.4255H9.95712C11.9832 20.4255 12.2871 18.383 12.2871 14.7064C12.2871 9.59997 11.7806 7.55742 9.248 7.55742L9.45061 7.65955ZM9.65321 25.5319H8.03237V41.1574H10.0584C12.3884 41.1574 13.0975 39.7276 13.0975 32.9872C13.0975 28.1872 12.3884 25.634 9.75452 25.634L9.65321 25.5319Z" fill="#366251"/>
<path d="M189.567 28.3915C189.365 29.8213 188.554 30.9447 186.933 30.9447C183.59 30.9447 186.224 25.8383 183.084 25.8383C181.26 25.8383 180.045 27.4723 178.019 31.7617L174.98 39.1149L175.587 40.4426C177.613 43.2 179.437 45.1404 181.666 45.1404C182.881 45.1404 184.198 44.5277 186.224 42.4851L187.237 43.9149C185.009 46.6723 182.172 48.2043 179.64 48.2043C176.6 48.2043 173.967 45.4468 172.042 43.3021C169.205 46.366 165.964 48.2043 161.506 48.2043C155.124 48.2043 149.35 44.1191 150.768 34.9277C151.984 29.4128 156.137 25.7362 160.898 22.6723C159.48 18.9957 158.67 14.5021 159.278 11.1319C160.392 4.08511 166.673 0 172.042 0C178.323 0 181.159 4.28936 180.146 9.19149C179.64 11.7447 178.525 14.0936 175.891 16.3404C173.156 18.7915 168.598 20.9362 166.065 22.4681C167.686 26.5532 170.117 31.1489 173.561 37.0723C174.574 35.0298 176.094 31.3532 177.613 28.3915C178.93 25.3277 181.058 23.4894 184.198 23.4894C188.554 23.4894 189.77 26.5532 189.567 28.3915ZM155.631 36.0511C155.023 39.8298 157.353 44.9362 163.431 44.9362C166.47 44.9362 168.496 44.1191 170.522 41.566C166.673 36.0511 163.938 30.7404 161.709 25.4298C158.67 28.0851 156.441 31.0468 155.631 36.0511ZM174.372 13.8894C175.689 12.1532 176.094 10.8255 176.398 9.39574C177.107 5.71915 174.98 3.26809 171.839 3.26809C167.787 3.26809 164.748 6.6383 164.545 9.80426C163.836 13.2766 164.241 16.6468 165.356 20.2213C167.787 18.7915 172.852 15.6255 174.473 13.8894H174.372Z" fill="#C6BEB0"/>
</g>
<defs>
<clipPath id="clip0_4_214">
<rect width="311" height="48" fill="white" transform="translate(0.333344)"/>
</clipPath>
</defs>
</svg>
