<svg width="248" height="48" viewBox="0 0 248 48" fill="none" xmlns="http://www.w3.org/2000/svg">
<path d="M0.666687 47.1781V2.54794H15.9009C20.5123 2.54794 24.0944 3.45205 26.6884 5.30137C29.2823 7.10959 30.5587 9.69863 30.5998 12.9863C30.641 15.2877 29.8175 17.5479 28.3353 19.3151C26.7295 21.2055 24.5885 22.5616 22.2004 23.2192V23.3014C25.3708 23.7123 27.8824 24.863 29.7352 26.8356C31.588 28.7671 32.6173 31.3562 32.535 34.0685C32.535 38.0548 31.0939 41.2603 28.2118 43.6438C25.3296 46.0274 21.5005 47.2192 16.6832 47.2192L0.666687 47.1781ZM9.31313 9.20548V20.9178H14.0069C16.3538 20.9178 18.1654 20.3836 19.483 19.274C20.8005 18.1644 21.4593 16.6027 21.4593 14.6301C21.4593 11.0137 18.9066 9.24658 13.7599 9.24658H9.31313V9.20548ZM9.31313 27.5753V40.5616H15.2833C17.836 40.5616 19.8124 39.9863 21.2535 38.7945C22.6534 37.6027 23.3945 36 23.3945 33.9041C23.3945 29.6712 20.5947 27.5753 14.9951 27.5753H9.31313ZM35.376 31.4384C35.376 26.2192 36.8994 22.1096 39.9874 19.0685C43.0754 16.0274 47.2339 14.5479 52.5042 14.5479C57.5685 14.5479 61.6035 16.0274 64.568 18.9863C67.5325 21.9452 68.9736 25.9315 68.9736 30.9041C68.9736 36.0822 67.4501 40.2329 64.4033 43.3151C61.3565 46.4384 57.2391 47.9589 52.0101 47.9589C46.9046 47.9589 42.8696 46.4795 39.8639 43.4795C36.8582 40.4795 35.376 36.4932 35.376 31.4384ZM43.9401 31.3151C43.9401 38.0137 46.7399 41.3425 52.2983 41.3425C57.692 41.3425 60.3683 37.9315 60.3683 31.0685C60.3683 24.4521 57.6508 21.1233 52.2571 21.1233C49.622 21.1233 47.5633 22.0274 46.1223 23.8356C44.6812 25.6849 43.9401 28.1507 43.9401 31.3151ZM72.2674 31.4384C72.2674 26.2192 73.7909 22.1096 76.8789 19.0685C79.9669 16.0274 84.1254 14.5479 89.3956 14.5479C94.46 14.5479 98.495 16.0274 101.459 18.9863C104.424 21.9452 105.865 25.9315 105.865 30.9041C105.865 36.0822 104.342 40.2329 101.295 43.3151C98.2479 46.4384 94.1306 47.9589 88.9016 47.9589C83.796 47.9589 79.761 46.4795 76.7554 43.4795C73.7497 40.5205 72.2263 36.4932 72.2674 31.4384ZM80.8315 31.3151C80.8315 38.0137 83.6313 41.3425 89.1898 41.3425C94.5423 41.3425 97.2186 37.9315 97.2186 31.0685C97.2186 24.4521 94.5423 21.1233 89.1486 21.1233C86.5135 21.1233 84.4548 22.0274 83.0137 23.8356C81.5315 25.6849 80.8315 28.1507 80.8315 31.3151ZM140.904 47.1781H130.404L119.082 31.5205H118.999V47.2192H110.518V0H118.999V30H119.082L129.746 15.2877H139.998L127.564 30.411L140.904 47.1781ZM144.651 47.1781V2.54794H159.885C164.496 2.54794 168.078 3.45205 170.672 5.30137C173.266 7.10959 174.542 9.69863 174.542 12.9452C174.584 15.2466 173.76 17.5068 172.278 19.274C170.672 21.1644 168.531 22.5205 166.143 23.1781V23.2603C169.313 23.6712 171.825 24.8219 173.678 26.7945C175.531 28.726 176.56 31.3151 176.478 34.0274C176.478 38.0137 175.037 41.2192 172.154 43.6027C169.272 45.9863 165.443 47.1781 160.626 47.1781H144.651ZM153.297 9.20548V20.9178H157.991C160.338 20.9178 162.149 20.3836 163.467 19.274C164.784 18.1644 165.443 16.6027 165.443 14.6301C165.443 11.0137 162.89 9.24658 157.744 9.24658H153.297V9.20548ZM153.297 27.5753V40.5616H159.267C161.82 40.5616 163.796 39.9863 165.237 38.7945C166.637 37.6027 167.378 36 167.378 33.9041C167.378 29.6712 164.578 27.5753 158.979 27.5753H153.297ZM209.911 47.1781H201.47V42.2877H201.305C198.958 46.0685 195.706 48 191.506 48C184.012 48 180.307 43.5206 180.307 34.5206V15.3288H188.789V33.6575C188.789 38.7945 190.806 41.3836 194.8 41.3836C196.653 41.4247 198.382 40.6438 199.617 39.2877C200.852 37.8904 201.47 36 201.47 33.6164V15.3288H209.911V47.1781ZM224.074 43.2329V47.2192H215.592V0H224.074V20.3425H224.157C226.627 16.4795 230.168 14.5479 234.738 14.5479C238.773 14.5479 241.944 15.9452 244.249 18.7808C246.555 21.6164 247.667 25.4794 247.667 30.3288C247.667 35.6301 246.349 39.9041 243.755 43.1096C241.161 46.3151 237.662 47.9178 233.297 47.9178C229.303 47.9178 226.256 46.3151 224.198 43.1507L224.074 43.2329ZM223.951 33.5753C223.91 35.6301 224.61 37.6027 225.968 39.1233C227.245 40.6027 229.097 41.4247 231.074 41.3836C233.379 41.4658 235.562 40.3973 236.879 38.5068C238.279 36.5753 238.979 33.9041 238.979 30.411C238.979 27.5342 238.361 25.274 237.085 23.6301C235.809 21.9863 233.997 21.1644 231.691 21.1644C229.55 21.1233 227.533 22.0274 226.133 23.6301C224.692 25.274 223.951 27.411 223.951 29.9589V33.5753Z" fill="#F44336"/>
</svg>
