<svg width="225" height="48" viewBox="0 0 225 48" fill="none" xmlns="http://www.w3.org/2000/svg">
<g clip-path="url(#clip0_4_194)">
<path d="M23.2528 36.9466C23.2528 40.5597 22.2707 43.3052 20.3065 45.1831C18.3423 47.061 15.5375 48 11.8921 48C8.91853 48 6.51149 47.3092 4.67098 45.9275C2.61875 44.3685 1.55699 42.1544 1.4857 39.2851H2.54854C2.65439 41.8354 3.60975 43.7836 5.41464 45.1296C7.04237 46.334 9.1837 46.9362 11.8386 46.9362C18.7406 46.9362 22.1916 43.6063 22.1916 36.9466V28.6031H22.0847C21.5543 30.9415 20.2538 32.8192 18.1833 34.236C16.1127 35.6528 13.8385 36.3612 11.3607 36.3612C7.71528 36.3612 4.86593 35.033 2.81263 32.3767C0.937541 29.968 -1.42939e-06 26.8857 0 23.1299C-1.42939e-06 19.3038 0.973185 16.1513 2.91956 13.6722C5.07871 10.9792 8.0161 9.63266 11.7317 9.63263C14.1739 9.63266 16.3684 10.3767 18.3153 11.8649C20.2622 13.3531 21.5187 15.2658 22.0847 17.6032H22.1916V10.27H23.2528V36.9466ZM22.1381 23.1299C22.1381 19.7644 21.2708 16.9129 19.5361 14.5755C17.5897 11.9895 14.9883 10.6965 11.7317 10.6965C8.33473 10.6965 5.66252 11.9538 3.71507 14.4685C1.94583 16.7356 1.06121 19.6228 1.06122 23.1299C1.06121 26.5668 1.89291 29.3831 3.55629 31.5789C5.43245 34.059 8.0161 35.299 11.3072 35.299C14.6696 35.299 17.3597 34.0946 19.3773 31.6859C21.2178 29.4188 22.1381 26.5668 22.1381 23.1299Z" fill="#59461B"/>
<path d="M50.4812 24.0332C50.4812 28.0009 49.4373 31.3313 47.3494 34.0244C45.0833 36.9996 42.0217 38.4872 38.1646 38.4872C34.3421 38.4872 31.2805 36.9996 28.9798 34.0244C26.9265 31.3313 25.8999 28.0009 25.8999 24.0332C25.8999 20.1011 26.9443 16.7713 29.0333 14.0436C31.3339 11.103 34.395 9.63266 38.2165 9.63263C42.039 9.63266 45.0833 11.1208 47.3494 14.0971C49.4373 16.7891 50.4812 20.1011 50.4812 24.0332ZM49.4184 24.0332C49.4184 20.4201 48.4808 17.3556 46.6058 14.8399C44.5168 12.0776 41.7204 10.6965 38.2165 10.6965C34.7126 10.6965 31.9167 12.0776 29.8288 14.8399C27.9181 17.32 26.9627 20.3844 26.9627 24.0332C26.9627 27.7176 27.9002 30.7999 29.7753 33.28C31.8643 36.0433 34.678 37.425 38.2165 37.425C41.756 37.425 44.5524 36.0433 46.6058 33.28C48.4808 30.7642 49.4184 27.682 49.4184 24.0332Z" fill="#59461B"/>
<path d="M77.1053 24.0332C77.1053 28.0009 76.0614 31.3313 73.9735 34.0244C71.7074 36.9996 68.6458 38.4872 64.7887 38.4872C60.9662 38.4872 57.9046 36.9996 55.6039 34.0244C53.5506 31.3313 52.524 28.0009 52.524 24.0332C52.524 20.1011 53.5684 16.7713 55.6574 14.0436C57.958 11.103 61.0191 9.63266 64.8406 9.63263C68.6631 9.63266 71.7074 11.1208 73.9735 14.0971C76.0614 16.7891 77.1053 20.1011 77.1053 24.0332ZM76.0425 24.0332C76.0424 20.4201 75.1049 17.3556 73.2298 14.8399C71.1409 12.0776 68.3444 10.6965 64.8406 10.6965C61.3366 10.6965 58.5408 12.0776 56.4529 14.8399C54.5422 17.32 53.5868 20.3844 53.5868 24.0332C53.5868 27.7176 54.5243 30.7999 56.3994 33.28C58.4884 36.0433 61.3021 37.425 64.8406 37.425C68.3801 37.425 71.1765 36.0433 73.2298 33.28C75.1049 30.7642 76.0424 27.682 76.0425 24.0332Z" fill="#59461B"/>
<path d="M101.818 37.8499H100.756V30.1453H100.649C99.9419 32.66 98.5972 34.679 96.6152 36.2023C94.6332 37.7256 92.3325 38.4872 89.7132 38.4872C85.962 38.4872 83.0246 36.9818 80.9011 33.9708C79.0249 31.3134 78.0868 28.0187 78.0868 24.0867C78.0868 20.2249 79.0422 16.9302 80.9529 14.2025C83.0764 11.1559 85.9965 9.89918 89.7132 9.89915C92.4384 9.89918 94.7744 10.6343 96.7213 12.1046C98.6682 13.575 99.9776 15.621 100.649 18.2427H100.756V0H101.818V37.8499ZM100.756 24.0867C100.756 20.2606 99.889 17.161 98.1544 14.7879C96.208 12.0603 93.3943 10.6965 89.7132 10.6964C86.2806 10.6965 83.6084 12.1133 81.6966 14.9469C79.9976 17.427 79.148 20.4736 79.148 24.0867C79.148 27.7355 79.9797 30.7821 81.6431 33.2265C83.5549 36.0255 86.245 37.425 89.7132 37.425C93.1815 37.425 95.9423 36.0255 97.9956 33.2265C99.8361 30.7464 100.756 27.6998 100.756 24.0867Z" fill="#59461B"/>
<path d="M107.308 37.8499V10.2942H110.893V15.8358C111.964 13.8812 112.615 12.7622 113.523 12.1395C114.43 11.5168 115.581 10.5568 116.598 10.1741C117.934 9.67174 119.842 9.09624 121.394 9.88411L121.457 13.7865C120.317 13.1119 117.651 13.9233 116.365 14.4976C115.436 14.9127 114.274 15.4946 113.626 16.2767C112.865 17.1954 112.174 17.5955 111.829 18.6853C111.31 20.3459 111.103 21.4514 111.103 23.4234V37.8499H107.308Z" fill="#59461B"/>
<path d="M124.375 21.9999H141.978C141.741 19.3455 141.068 17.3547 139.96 16.0275C138.258 13.9674 136.051 12.9374 133.34 12.9373C130.886 12.9374 128.823 13.7594 127.15 15.4035C125.478 17.0477 124.553 19.2465 124.375 21.9999ZM141.465 29.0479L145.85 28.9985C145.09 31.8181 143.464 34.5806 141.407 36.1374C139.35 37.6942 136.724 38.4726 133.526 38.4726C129.5 38.4726 126.307 37.2315 123.948 34.7493C121.589 32.267 120.409 28.7858 120.409 24.3056C120.409 19.6698 121.602 16.0718 123.987 13.5117C126.372 10.9516 129.465 9.6716 133.267 9.67157C136.948 9.6716 139.955 10.9257 142.288 13.4339C144.621 15.9421 145.788 19.4709 145.788 24.0202C145.788 24.297 145.779 24.7121 145.762 25.2657H124.214C124.387 28.2928 125.388 31.2569 126.926 32.8656C128.464 34.4743 131.254 35.2787 133.552 35.2787C135.263 35.2787 137.377 34.2546 138.587 33.3551C139.797 32.4556 140.756 31.0198 141.465 29.0479Z" fill="#59461B"/>
<path d="M166.21 34.4509C164.482 35.9212 162.818 36.9591 161.22 37.5645C159.621 38.1699 157.906 38.4726 156.074 38.4726C153.05 38.4726 150.725 37.7332 149.101 36.2542C147.476 34.7752 146.664 32.8854 146.664 30.5848C146.664 29.2356 146.971 28.0031 147.584 26.8873C148.198 25.7716 149.001 24.8765 149.995 24.2018C150.989 23.5272 152.108 23.0169 153.352 22.671C154.268 22.4288 155.651 22.1953 157.5 21.9704C161.267 21.5207 164.041 20.9844 165.821 20.3617C165.838 19.7217 165.847 19.3152 165.847 19.1422C165.847 17.2394 165.406 15.1091 164.525 14.3307C163.332 13.2755 161.561 12.7479 159.211 12.7479C157.016 12.7479 155.396 13.1328 154.35 13.9025C153.305 14.6723 152.023 16.1063 152.03 18.7789L147.812 18.7665C148.227 16.8118 148.565 14.6231 149.516 13.4209C150.466 12.2187 151.84 11.2933 153.637 10.6446C155.435 9.99593 157.517 9.6716 159.885 9.67157C162.235 9.6716 163.785 9.94836 165.254 10.5019C166.723 11.0554 167.7 11.904 168.392 12.7429C169.083 13.5819 169.413 14.4891 169.689 15.7691C169.845 16.5648 169.923 18.0005 169.923 20.0763V26.3035C169.923 30.6453 169.765 31.9699 169.964 33.1202C170.163 34.2705 171.326 34.764 172.838 34.4992L172.897 38.0607C172.897 38.0607 169.267 38.2755 168.016 37.7992C166.996 37.4106 166.348 35.7482 166.21 34.4509ZM165.821 23.5633C164.127 24.2552 162.152 24.1834 158.713 24.8708C156.538 25.3506 155.593 25.5097 154.798 25.8556C154.003 26.2016 152.455 26.3727 151.365 27.6781C150.488 28.7276 150.614 29.7944 150.614 30.9627C150.614 32.2082 151.65 33.2461 152.592 34.0764C153.534 34.9067 155.374 34.8141 157.189 34.8141C158.986 34.8141 160.585 34.4206 161.984 33.6335C163.384 32.8465 164.413 31.7697 165.069 30.4032C165.57 29.348 165.821 27.7912 165.821 25.7327V23.5633Z" fill="#59461B"/>
<path d="M195.551 38.0529V34.5761C193.805 37.3091 188.876 38.6757 185.489 38.6757C183.294 38.6757 181.276 38.0702 179.436 36.8594C177.595 35.6485 176.17 33.9577 175.159 31.7868C174.148 29.6159 173.642 27.1207 173.642 24.3011C173.642 21.5507 174.1 19.0555 175.016 16.8154C175.932 14.5753 177.306 12.8585 179.138 11.6649C180.97 10.4714 183.017 9.87463 185.281 9.8746C186.94 9.87463 190.781 10.2249 192.077 10.9254C193.373 11.626 194.427 12.5385 195.24 13.6628V0.0147705H199.263V38.0529H195.551ZM177.13 24.3011C177.13 27.8299 177.873 30.4678 179.36 32.2149C180.846 33.962 184.198 35.5535 186.22 35.5535C188.259 35.5535 192.064 34.0009 193.49 32.3317C194.915 30.6624 195.628 28.1153 195.628 24.6903C195.628 20.9194 194.903 18.1517 193.451 16.3873C191.999 14.6229 188.574 12.8792 186.448 12.8791C184.375 12.8792 180.608 14.5883 179.217 16.2835C177.826 17.9787 177.13 20.6512 177.13 24.3011Z" fill="#59461B"/>
<path d="M202.499 28.7273L205.988 28.6828C206.247 30.5337 207.295 32.5265 208.479 33.5125C209.663 34.4985 211.753 35.1351 213.879 35.1351C216.022 35.1351 217.903 34.7701 218.939 33.8965C219.976 33.023 221.294 32.3571 221.294 30.5346C221.294 29.4795 220.691 28.1466 219.775 27.5412C219.135 27.126 217.109 26.2395 214.569 25.5994C211.147 24.7345 209.066 24.489 207.744 23.8576C206.422 23.2262 204.984 22.4963 204.301 21.3805C203.618 20.2648 203.277 19.0324 203.277 17.6831C203.277 16.455 203.558 15.3176 204.119 14.2711C204.681 13.2246 205.446 12.3554 206.414 11.6634C207.139 11.1272 207.766 10.6731 209.019 10.3012C210.272 9.92933 211.615 9.74338 213.05 9.74335C215.21 9.74338 217.106 10.0547 218.74 10.6774C220.373 11.3002 221.578 12.1435 222.356 13.2073C223.134 14.2711 223.706 16.4118 223.999 18.1935L220.527 18.17C220.319 16.7516 218.956 14.6394 217.962 13.8437C216.969 13.048 214.475 12.7938 212.66 12.7937C210.517 12.7938 209.496 13.7227 208.58 14.4319C207.664 15.1412 207.206 15.9715 207.206 16.9228C207.206 17.5283 207.179 18.2168 207.559 18.7011C207.939 19.2027 208.826 19.9769 209.638 20.3055C210.105 20.4785 211.696 21.0917 213.978 21.7145C217.278 22.5967 219.509 22.8163 220.813 23.3784C222.118 23.9406 223.142 24.758 223.885 25.8304C224.628 26.9029 225 28.2349 225 29.8263C225 31.3831 224.546 32.8491 223.639 34.2243C222.732 35.5994 221.423 36.6633 219.712 37.4157C218.001 38.1682 216.065 38.5444 213.905 38.5444C210.328 38.5444 207.601 37.8006 205.726 36.313C203.851 34.8254 203.018 31.6506 202.499 28.7273Z" fill="#59461B"/>
</g>
<defs>
<clipPath id="clip0_4_194">
<rect width="225" height="48" fill="white"/>
</clipPath>
</defs>
</svg>
