<svg width="138" height="30" viewBox="0 0 138 30" fill="none" xmlns="http://www.w3.org/2000/svg">
<g clip-path="url(#clip0_1_4982)">
<path d="M23.5 0H6.5C4.77609 0 3.12279 0.684819 1.90381 1.90381C0.684819 3.12279 0 4.77609 0 6.5L0 23.5C0 24.3536 0.168127 25.1988 0.494783 25.9874C0.821439 26.7761 1.30023 27.4926 1.90381 28.0962C3.12279 29.3152 4.77609 30 6.5 30H23.5C24.3536 30 25.1988 29.8319 25.9874 29.5052C26.7761 29.1786 27.4926 28.6998 28.0962 28.0962C28.6998 27.4926 29.1786 26.7761 29.5052 25.9874C29.8319 25.1988 30 24.3536 30 23.5V6.5C30 5.64641 29.8319 4.80117 29.5052 4.01256C29.1786 3.22394 28.6998 2.50739 28.0962 1.90381C27.4926 1.30023 26.7761 0.821439 25.9874 0.494783C25.1988 0.168127 24.3536 0 23.5 0ZM14.25 23.25C14.25 23.25 11.94 20.75 7.465 20.63C7.07327 20.6209 6.70067 20.4588 6.42689 20.1785C6.15312 19.8982 5.99989 19.5218 6 19.13V8.34C5.98867 7.92229 6.14121 7.51672 6.425 7.21C6.56724 7.05987 6.73975 6.94167 6.93111 6.86323C7.12247 6.78479 7.32831 6.7479 7.535 6.755C9.88529 6.82534 12.1859 7.44888 14.25 8.575V23.25ZM24 19.13C24.0001 19.5218 23.8469 19.8982 23.5731 20.1785C23.2993 20.4588 22.9267 20.6209 22.535 20.63C18.065 20.76 15.755 23.245 15.75 23.25V8.575C17.8141 7.44888 20.1147 6.82534 22.465 6.755C22.6698 6.74978 22.8735 6.78657 23.0636 6.8631C23.2536 6.93964 23.426 7.05429 23.57 7.2C23.8538 7.50706 24.0079 7.91196 24 8.33V19.13Z" fill="url(#paint0_linear_1_4982)"/>
</g>
<path d="M43.4347 7.45455H46.6591L50.9773 17.9943H51.1477L55.4659 7.45455H58.6903V22H56.1619V12.0071H56.027L52.0071 21.9574H50.1179L46.098 11.9858H45.9631V22H43.4347V7.45455ZM68.3991 17.4119V11.0909H70.9702V22H68.4773V20.0611H68.3636C68.1174 20.6719 67.7126 21.1714 67.1491 21.5597C66.5904 21.9479 65.9015 22.142 65.0824 22.142C64.3674 22.142 63.7353 21.9834 63.1861 21.6662C62.6416 21.3442 62.2154 20.8778 61.9077 20.267C61.5999 19.6515 61.446 18.9081 61.446 18.0369V11.0909H64.017V17.6392C64.017 18.3305 64.2064 18.8797 64.5852 19.2869C64.964 19.6941 65.4612 19.8977 66.0767 19.8977C66.4555 19.8977 66.8224 19.8054 67.1776 19.6207C67.5327 19.4361 67.8239 19.1615 68.0511 18.7969C68.2831 18.4276 68.3991 17.9659 68.3991 17.4119ZM73.614 22V11.0909H76.1069V12.9091H76.2205C76.4194 12.2794 76.7603 11.794 77.2433 11.4531C77.7309 11.1075 78.2873 10.9347 78.9123 10.9347C79.0543 10.9347 79.213 10.9418 79.3881 10.956C79.5681 10.9654 79.7172 10.982 79.8356 11.0057V13.3707C79.7267 13.3329 79.5539 13.2997 79.3171 13.2713C79.0851 13.2382 78.8602 13.2216 78.6424 13.2216C78.1737 13.2216 77.7522 13.3234 77.3782 13.527C77.0089 13.7259 76.7177 14.0028 76.5046 14.358C76.2915 14.7131 76.185 15.1226 76.185 15.5866V22H73.614ZM84.4876 22.2202C83.7963 22.2202 83.1737 22.0971 82.6197 21.8509C82.0704 21.5999 81.6348 21.2306 81.3129 20.7429C80.9956 20.2552 80.837 19.6539 80.837 18.9389C80.837 18.3234 80.9506 17.8144 81.1779 17.4119C81.4052 17.0095 81.7153 16.6875 82.1083 16.446C82.5013 16.2045 82.944 16.0223 83.4364 15.8991C83.9336 15.7713 84.4473 15.679 84.9776 15.6222C85.6168 15.5559 86.1353 15.4967 86.533 15.4446C86.9308 15.3878 87.2196 15.3026 87.3995 15.1889C87.5842 15.0705 87.6765 14.8883 87.6765 14.642V14.5994C87.6765 14.0644 87.5179 13.6501 87.2006 13.3565C86.8834 13.063 86.4265 12.9162 85.8299 12.9162C85.2002 12.9162 84.7006 13.0535 84.3313 13.3281C83.9667 13.6027 83.7205 13.9271 83.5927 14.3011L81.1921 13.9602C81.3815 13.2973 81.694 12.7434 82.1296 12.2983C82.5652 11.8485 83.0979 11.5123 83.7276 11.2898C84.3574 11.0625 85.0534 10.9489 85.8157 10.9489C86.3413 10.9489 86.8645 11.0104 87.3853 11.1335C87.9061 11.2566 88.382 11.4602 88.8129 11.7443C89.2437 12.0237 89.5894 12.4048 89.8498 12.8878C90.1149 13.3707 90.2475 13.9744 90.2475 14.6989V22H87.7759V20.5014H87.6907C87.5344 20.8045 87.3143 21.0885 87.0302 21.3537C86.7508 21.6141 86.3981 21.8248 85.9719 21.9858C85.5505 22.142 85.0558 22.2202 84.4876 22.2202ZM85.1552 20.331C85.6713 20.331 86.1187 20.2292 86.4975 20.0256C86.8763 19.8172 87.1675 19.5426 87.3711 19.2017C87.5794 18.8608 87.6836 18.4891 87.6836 18.0866V16.8011C87.6031 16.8674 87.4658 16.929 87.2717 16.9858C87.0823 17.0426 86.8692 17.0923 86.6325 17.1349C86.3957 17.1776 86.1613 17.2154 85.9293 17.2486C85.6973 17.2817 85.4961 17.3101 85.3256 17.3338C84.9421 17.3859 84.5988 17.4711 84.2958 17.5895C83.9928 17.7079 83.7537 17.8736 83.5785 18.0866C83.4033 18.295 83.3157 18.5649 83.3157 18.8963C83.3157 19.3698 83.4885 19.7273 83.8342 19.9688C84.1798 20.2102 84.6201 20.331 85.1552 20.331ZM95.1765 18.5767L95.1694 15.473H95.5813L99.5018 11.0909H102.506L97.6836 16.4602H97.1509L95.1765 18.5767ZM92.8327 22V7.45455H95.4038V22H92.8327ZM99.6793 22L96.1282 17.0355L97.8612 15.2244L102.755 22H99.6793ZM107.359 22.2202C106.667 22.2202 106.045 22.0971 105.491 21.8509C104.942 21.5999 104.506 21.2306 104.184 20.7429C103.867 20.2552 103.708 19.6539 103.708 18.9389C103.708 18.3234 103.822 17.8144 104.049 17.4119C104.276 17.0095 104.586 16.6875 104.979 16.446C105.372 16.2045 105.815 16.0223 106.308 15.8991C106.805 15.7713 107.318 15.679 107.849 15.6222C108.488 15.5559 109.006 15.4967 109.404 15.4446C109.802 15.3878 110.091 15.3026 110.271 15.1889C110.455 15.0705 110.548 14.8883 110.548 14.642V14.5994C110.548 14.0644 110.389 13.6501 110.072 13.3565C109.754 13.063 109.298 12.9162 108.701 12.9162C108.071 12.9162 107.572 13.0535 107.202 13.3281C106.838 13.6027 106.592 13.9271 106.464 14.3011L104.063 13.9602C104.253 13.2973 104.565 12.7434 105.001 12.2983C105.436 11.8485 105.969 11.5123 106.599 11.2898C107.228 11.0625 107.924 10.9489 108.687 10.9489C109.212 10.9489 109.736 11.0104 110.256 11.1335C110.777 11.2566 111.253 11.4602 111.684 11.7443C112.115 12.0237 112.46 12.4048 112.721 12.8878C112.986 13.3707 113.119 13.9744 113.119 14.6989V22H110.647V20.5014H110.562C110.406 20.8045 110.185 21.0885 109.901 21.3537C109.622 21.6141 109.269 21.8248 108.843 21.9858C108.422 22.142 107.927 22.2202 107.359 22.2202ZM108.026 20.331C108.542 20.331 108.99 20.2292 109.369 20.0256C109.747 19.8172 110.039 19.5426 110.242 19.2017C110.451 18.8608 110.555 18.4891 110.555 18.0866V16.8011C110.474 16.8674 110.337 16.929 110.143 16.9858C109.953 17.0426 109.74 17.0923 109.504 17.1349C109.267 17.1776 109.032 17.2154 108.8 17.2486C108.568 17.2817 108.367 17.3101 108.197 17.3338C107.813 17.3859 107.47 17.4711 107.167 17.5895C106.864 17.7079 106.625 17.8736 106.45 18.0866C106.274 18.295 106.187 18.5649 106.187 18.8963C106.187 19.3698 106.36 19.7273 106.705 19.9688C107.051 20.2102 107.491 20.331 108.026 20.331ZM115.704 22V11.0909H118.161V12.9446H118.289C118.516 12.3196 118.893 11.8319 119.418 11.4815C119.944 11.1264 120.571 10.9489 121.3 10.9489C122.039 10.9489 122.662 11.1288 123.168 11.4886C123.68 11.8437 124.04 12.3291 124.248 12.9446H124.362C124.603 12.3385 125.01 11.8556 125.583 11.4957C126.161 11.1312 126.845 10.9489 127.636 10.9489C128.639 10.9489 129.459 11.2661 130.093 11.9006C130.728 12.535 131.045 13.4607 131.045 14.6776V22H128.467V15.0753C128.467 14.3982 128.287 13.9034 127.927 13.5909C127.567 13.2737 127.127 13.1151 126.606 13.1151C125.986 13.1151 125.5 13.3092 125.15 13.6974C124.804 14.081 124.631 14.5805 124.631 15.196V22H122.11V14.9688C122.11 14.4053 121.94 13.9555 121.599 13.6193C121.263 13.2831 120.822 13.1151 120.278 13.1151C119.908 13.1151 119.572 13.2098 119.269 13.3991C118.966 13.5838 118.725 13.8466 118.545 14.1875C118.365 14.5237 118.275 14.9167 118.275 15.3665V22H115.704ZM133.653 22V11.0909H136.224V22H133.653ZM134.946 9.54261C134.538 9.54261 134.188 9.40767 133.895 9.13778C133.601 8.86316 133.454 8.53409 133.454 8.15057C133.454 7.76231 133.601 7.43324 133.895 7.16335C134.188 6.88873 134.538 6.75142 134.946 6.75142C135.358 6.75142 135.708 6.88873 135.997 7.16335C136.29 7.43324 136.437 7.76231 136.437 8.15057C136.437 8.53409 136.29 8.86316 135.997 9.13778C135.708 9.40767 135.358 9.54261 134.946 9.54261Z" fill="#272C27"/>
<defs>
<linearGradient id="paint0_linear_1_4982" x1="0" y1="0" x2="30" y2="30" gradientUnits="userSpaceOnUse">
<stop stop-color="#5CC4CD"/>
<stop offset="0.75" stop-color="#1C81C1"/>
<stop offset="1" stop-color="#4E48E0"/>
</linearGradient>
<clipPath id="clip0_1_4982">
<rect width="30" height="30" fill="white"/>
</clipPath>
</defs>
</svg>
